<?xml version="1.0" encoding="iso-8859-1"?>
<!-- Generator: Adobe Illustrator 15.1.0, SVG Export Plug-In . SVG Version: 6.00 Build 0)  -->
<!DOCTYPE svg PUBLIC "-//W3C//DTD SVG 1.1//EN" "http://www.w3.org/Graphics/SVG/1.1/DTD/svg11.dtd">
<svg version="1.1" id="Layer_1" xmlns="http://www.w3.org/2000/svg" xmlns:xlink="http://www.w3.org/1999/xlink" x="0px" y="0px"
	 width="350px" height="230px" viewBox="0 0 350 230" style="enable-background:new 0 0 350 230;" xml:space="preserve">
<g>
	<g id="ARC_21_">
		<path style="fill:#FFFFFF;" d="M115.39,180.318c-6.576,0-13.189-2.195-18.643-6.703c-6.039-4.992-9.773-12.036-10.518-19.836
			c-0.74-7.795,1.598-15.411,6.59-21.449c1.059-1.283,2.959-1.463,4.242-0.402c1.284,1.061,1.464,2.957,0.402,4.241
			c-3.963,4.797-5.82,10.849-5.232,17.042c0.59,6.197,3.555,11.792,8.356,15.76c9.895,8.176,24.607,6.775,32.792-3.125
			c0.949-1.151,1.777-2.373,2.465-3.627c0.795-1.461,2.624-2.006,4.088-1.203c1.459,0.797,1.998,2.629,1.201,4.088
			c-0.866,1.59-1.91,3.131-3.104,4.576C132.235,176.69,123.843,180.318,115.39,180.318z"/>
	</g>
	<g id="ARC_20_">
		<path style="fill:#FFFFFF;" d="M106.853,123.084c-0.815,0-1.631-0.332-2.224-0.982c-13.887-15.178-13.821-38.889,0.153-53.98
			c14.93-16.119,40.195-17.088,56.313-2.163c1.22,1.13,1.294,3.037,0.163,4.26c-1.134,1.22-3.041,1.292-4.259,0.161
			c-13.683-12.668-35.128-11.847-47.795,1.838c-11.86,12.812-11.918,32.937-0.128,45.818c1.121,1.228,1.037,3.135-0.188,4.255
			C108.308,122.822,107.58,123.084,106.853,123.084z"/>
	</g>
	<g id="LINE_70_">
		<path style="fill:#FFFFFF;" d="M192.063,157.749c-0.77,0-1.542-0.294-2.132-0.883l-37.208-37.213c-1.178-1.177-1.178-3.082,0-4.26
			c1.178-1.177,3.082-1.177,4.26,0l37.213,37.208c1.178,1.178,1.178,3.088,0,4.265C193.608,157.455,192.835,157.749,192.063,157.749
			z"/>
	</g>
	<g id="LINE_69_">
		<path style="fill:#FFFFFF;" d="M193.117,190.063c-0.769,0-1.541-0.295-2.13-0.883l-24.125-24.125
			c-1.178-1.178-1.178-3.087,0-4.264c1.178-1.178,3.084-1.178,4.262,0l24.125,24.127c1.177,1.177,1.177,3.084,0,4.262
			C194.659,189.768,193.89,190.063,193.117,190.063z"/>
	</g>
	<g id="LINE_68_">
		<path style="fill:#FFFFFF;" d="M251.955,186.385c-0.769,0-1.542-0.294-2.13-0.883L198.116,133.8c-1.177-1.177-1.177-3.085,0-4.262
			c1.178-1.178,3.084-1.178,4.262,0l51.711,51.704c1.177,1.178,1.177,3.082,0,4.26C253.5,186.091,252.727,186.385,251.955,186.385z"
			/>
	</g>
	<g id="LINE_67_">
		<path style="fill:#FFFFFF;" d="M160.808,189.006c-0.771,0-1.543-0.295-2.132-0.883l-37.208-37.213
			c-1.178-1.178-1.178-3.082,0-4.26c1.177-1.178,3.086-1.178,4.264,0l37.208,37.211c1.177,1.177,1.177,3.084,0,4.262
			C162.351,188.711,161.578,189.006,160.808,189.006z"/>
	</g>
	<g id="LINE_66_">
		<path style="fill:#FFFFFF;" d="M284.577,187.748c-0.772,0-1.544-0.293-2.133-0.883l-98.46-98.456
			c-1.177-1.178-1.177-3.085,0-4.263c1.177-1.176,3.087-1.176,4.265,0l98.458,98.457c1.177,1.178,1.177,3.085,0,4.262
			C286.118,187.455,285.347,187.748,284.577,187.748z"/>
	</g>
	<g id="LINE_65_">
		<path style="fill:#FFFFFF;" d="M154.112,151.049c-0.771,0-1.544-0.295-2.133-0.883l-14.88-14.881
			c-1.177-1.178-1.177-3.084,0-4.262c1.177-1.177,3.085-1.177,4.262,0l14.882,14.883c1.178,1.178,1.178,3.082,0,4.26
			C155.655,150.754,154.882,151.049,154.112,151.049z"/>
	</g>
	<g id="LINE_64_">
		<path style="fill:#FFFFFF;" d="M185.366,119.801c-0.773,0-1.541-0.295-2.131-0.883l-14.881-14.887
			c-1.178-1.178-1.178-3.084,0-4.262c1.177-1.178,3.084-1.178,4.262,0l14.879,14.889c1.179,1.177,1.179,3.082,0,4.26
			C186.907,119.506,186.137,119.801,185.366,119.801z"/>
	</g>
	<g id="LINE_63_">
		<path style="fill:#FFFFFF;" d="M225.237,190.927c-0.77,0-1.542-0.294-2.132-0.883l-17.541-17.546
			c-1.177-1.178-1.177-3.086,0-4.264c1.178-1.178,3.086-1.178,4.265,0l17.541,17.548c1.177,1.177,1.177,3.085,0,4.262
			C226.781,190.633,226.009,190.927,225.237,190.927z"/>
	</g>
	<g id="LINE_62_">
		<path style="fill:#FFFFFF;" d="M95.141,137.265c-0.677,0-1.357-0.228-1.917-0.69c-1.284-1.062-1.466-2.961-0.404-4.244
			l11.709-14.182c1.062-1.279,2.96-1.461,4.242-0.404c1.283,1.063,1.465,2.96,0.404,4.244l-11.711,14.181
			C96.87,136.891,96.007,137.265,95.141,137.265z"/>
	</g>
	<g id="ARC_19_">
		<path style="fill:#FFFFFF;" d="M200.999,104.172c-1.067,0-2.098-0.563-2.646-1.561c-0.801-1.46-0.27-3.296,1.192-4.097
			c5.455-2.993,9.415-7.931,11.157-13.905c1.741-5.975,1.049-12.27-1.95-17.728c-2.992-5.454-7.931-9.415-13.902-11.155
			c-5.978-1.744-12.269-1.051-17.723,1.945c-1.277,0.701-2.499,1.528-3.633,2.461c-1.289,1.059-3.185,0.875-4.244-0.413
			c-1.057-1.288-0.871-3.187,0.413-4.243c1.427-1.172,2.96-2.209,4.562-3.09c6.865-3.77,14.791-4.639,22.309-2.449
			c7.522,2.191,13.735,7.178,17.504,14.042c3.772,6.87,4.645,14.794,2.453,22.316c-2.19,7.52-7.179,13.735-14.048,17.507
			C201.983,104.051,201.486,104.172,200.999,104.172z"/>
	</g>
	<g id="LINE_61_">
		<path style="fill:#FFFFFF;" d="M159.048,71.182c-0.867,0-1.726-0.373-2.322-1.091c-1.063-1.284-0.883-3.185,0.4-4.245
			l12.534-10.363c1.279-1.059,3.181-0.877,4.243,0.4c1.059,1.284,0.879,3.186-0.404,4.246l-12.53,10.363
			C160.405,70.955,159.727,71.182,159.048,71.182z"/>
	</g>
</g>
</svg>
