<?xml version="1.0" encoding="iso-8859-1"?>
<!-- Generator: Adobe Illustrator 15.1.0, SVG Export Plug-In . SVG Version: 6.00 Build 0)  -->
<!DOCTYPE svg PUBLIC "-//W3C//DTD SVG 1.1//EN" "http://www.w3.org/Graphics/SVG/1.1/DTD/svg11.dtd">
<svg version="1.1" id="Layer_1" xmlns="http://www.w3.org/2000/svg" xmlns:xlink="http://www.w3.org/1999/xlink" x="0px" y="0px"
	 width="352.482px" height="270px" viewBox="0 0 352.482 270" style="enable-background:new 0 0 352.482 270;" xml:space="preserve"
	>
<g>
	<path style="fill:#1D0D5C;" d="M67.063,244.591v-22.766l-9.4,17.241h-2.764l-9.445-17.241v22.766h-4.987V212.96h5.344
		l10.473,19.334l10.469-19.334h5.344v31.631H67.063z"/>
	<path style="fill:#1D0D5C;" d="M101.274,244.815c-2.257,0-4.313-0.454-6.168-1.361c-1.857-0.908-3.453-2.107-4.788-3.609
		c-1.337-1.5-2.37-3.213-3.099-5.143c-0.728-1.932-1.092-3.906-1.092-5.927c0-2.109,0.387-4.127,1.158-6.059
		c0.773-1.929,1.835-3.638,3.188-5.124c1.35-1.482,2.956-2.667,4.809-3.54c1.857-0.877,3.887-1.314,6.084-1.314
		c2.255,0,4.311,0.466,6.169,1.402c1.858,0.936,3.448,2.16,4.769,3.675s2.347,3.229,3.072,5.146c0.728,1.916,1.094,3.87,1.094,5.858
		c0,2.109-0.381,4.129-1.137,6.058c-0.756,1.93-1.819,3.632-3.185,5.102c-1.369,1.471-2.979,2.645-4.836,3.52
		C105.456,244.376,103.445,244.815,101.274,244.815z M91.206,228.774c0,1.486,0.239,2.925,0.715,4.323
		c0.475,1.396,1.15,2.629,2.025,3.698c0.877,1.067,1.939,1.923,3.188,2.559c1.246,0.642,2.645,0.961,4.186,0.961
		c1.603,0,3.021-0.335,4.256-1.005c1.234-0.667,2.277-1.55,3.139-2.649c0.863-1.099,1.518-2.33,1.963-3.7
		c0.445-1.365,0.666-2.759,0.666-4.186c0-1.513-0.236-2.962-0.711-4.341c-0.475-1.384-1.15-2.601-2.027-3.657
		c-0.875-1.053-1.932-1.899-3.16-2.541c-1.234-0.633-2.608-0.957-4.125-0.957c-1.602,0-3.029,0.337-4.275,1.006
		c-1.247,0.666-2.302,1.537-3.162,2.604c-0.861,1.067-1.523,2.295-1.984,3.675C91.435,225.945,91.206,227.347,91.206,228.774z"/>
	<path style="fill:#1D0D5C;" d="M135.538,222.315v22.276h-4.99V212.96h3.921l18.089,22.809v-22.766h5.033v31.588h-4.144
		L135.538,222.315z"/>
	<path style="fill:#1D0D5C;" d="M192.338,220.4c-0.297-0.327-0.728-0.676-1.292-1.048c-0.563-0.37-1.225-0.719-1.98-1.046
		s-1.588-0.595-2.496-0.801c-0.907-0.208-1.833-0.311-2.784-0.311c-2.106,0-3.662,0.384-4.655,1.157
		c-0.996,0.772-1.492,1.839-1.492,3.207c0,0.775,0.155,1.404,0.468,1.896c0.313,0.488,0.795,0.919,1.447,1.289
		c0.654,0.374,1.472,0.701,2.451,0.983c0.98,0.282,2.123,0.584,3.43,0.912c1.604,0.386,3.054,0.815,4.345,1.292
		c1.293,0.474,2.384,1.054,3.274,1.737c0.889,0.683,1.583,1.521,2.072,2.516c0.489,0.998,0.732,2.208,0.732,3.632
		c0,1.605-0.302,2.984-0.911,4.146c-0.61,1.157-1.443,2.101-2.496,2.827c-1.053,0.728-2.279,1.263-3.673,1.604
		c-1.398,0.342-2.896,0.511-4.501,0.511c-2.408,0-4.73-0.364-6.972-1.092c-2.243-0.728-4.271-1.788-6.081-3.185l2.273-4.276
		c0.384,0.384,0.939,0.816,1.668,1.292c0.727,0.474,1.573,0.912,2.54,1.312c0.966,0.4,2.013,0.744,3.142,1.026
		s2.302,0.423,3.519,0.423c1.959,0,3.477-0.341,4.545-1.024s1.604-1.693,1.604-3.029c0-0.803-0.199-1.472-0.6-2.003
		c-0.405-0.536-0.976-1.006-1.717-1.407c-0.745-0.4-1.648-0.764-2.72-1.091c-1.068-0.327-2.286-0.667-3.652-1.024
		c-1.575-0.417-2.945-0.853-4.12-1.314c-1.175-0.46-2.146-1.016-2.917-1.67c-0.772-0.652-1.361-1.418-1.76-2.295
		c-0.402-0.877-0.604-1.938-0.604-3.185c0-1.545,0.297-2.919,0.893-4.125c0.594-1.2,1.403-2.209,2.428-3.027
		c1.023-0.816,2.234-1.433,3.632-1.85c1.396-0.413,2.909-0.621,4.544-0.621c2.138,0,4.111,0.339,5.924,1.022
		c1.811,0.683,3.4,1.531,4.767,2.541L192.338,220.4z"/>
	<path style="fill:#1D0D5C;" d="M222.901,244.815c-2.259,0-4.315-0.454-6.171-1.361s-3.45-2.107-4.787-3.609
		c-1.336-1.5-2.371-3.213-3.097-5.143c-0.729-1.932-1.091-3.906-1.091-5.927c0-2.109,0.386-4.127,1.154-6.059
		c0.776-1.929,1.836-3.638,3.188-5.124c1.352-1.482,2.956-2.667,4.81-3.54c1.857-0.877,3.886-1.314,6.085-1.314
		c2.253,0,4.312,0.466,6.169,1.402c1.856,0.936,3.446,2.16,4.766,3.675c1.323,1.515,2.348,3.229,3.074,5.146
		c0.729,1.916,1.093,3.87,1.093,5.858c0,2.109-0.38,4.129-1.137,6.058c-0.757,1.93-1.819,3.632-3.186,5.102
		c-1.369,1.471-2.978,2.645-4.835,3.52C227.083,244.376,225.069,244.815,222.901,244.815z M212.831,228.774
		c0,1.486,0.241,2.925,0.715,4.323c0.475,1.396,1.153,2.629,2.028,3.698c0.874,1.067,1.937,1.923,3.187,2.559
		c1.244,0.642,2.642,0.961,4.184,0.961c1.604,0,3.025-0.335,4.255-1.005c1.235-0.667,2.28-1.55,3.143-2.649
		c0.862-1.099,1.515-2.33,1.96-3.7c0.448-1.365,0.669-2.759,0.669-4.186c0-1.513-0.239-2.962-0.714-4.341
		c-0.475-1.384-1.149-2.601-2.028-3.657c-0.874-1.053-1.93-1.899-3.159-2.541c-1.234-0.633-2.608-0.957-4.125-0.957
		c-1.601,0-3.028,0.337-4.275,1.006c-1.245,0.666-2.303,1.537-3.161,2.604c-0.862,1.067-1.524,2.295-1.984,3.675
		C213.062,225.945,212.831,227.347,212.831,228.774z"/>
	<path style="fill:#1D0D5C;" d="M265.313,244.815c-2.257,0-4.313-0.454-6.169-1.361s-3.45-2.107-4.787-3.609
		c-1.337-1.5-2.371-3.213-3.099-5.143c-0.728-1.932-1.092-3.906-1.092-5.927c0-2.109,0.387-4.127,1.156-6.059
		c0.775-1.929,1.837-3.638,3.189-5.124c1.351-1.482,2.955-2.667,4.81-3.54c1.857-0.877,3.885-1.314,6.083-1.314
		c2.255,0,4.311,0.466,6.171,1.402c1.855,0.936,3.446,2.16,4.767,3.675c1.319,1.515,2.347,3.229,3.074,5.146
		c0.726,1.916,1.091,3.87,1.091,5.858c0,2.109-0.38,4.129-1.137,6.058c-0.756,1.93-1.819,3.632-3.184,5.102
		c-1.371,1.471-2.981,2.645-4.837,3.52C269.494,244.376,267.482,244.815,265.313,244.815z M255.243,228.774
		c0,1.486,0.239,2.925,0.715,4.323c0.475,1.396,1.153,2.629,2.026,3.698c0.877,1.067,1.939,1.923,3.187,2.559
		c1.246,0.642,2.646,0.961,4.187,0.961c1.604,0,3.022-0.335,4.255-1.005c1.235-0.667,2.279-1.55,3.14-2.649
		c0.862-1.099,1.517-2.33,1.962-3.7c0.446-1.365,0.666-2.759,0.666-4.186c0-1.513-0.236-2.962-0.71-4.341
		c-0.476-1.384-1.152-2.601-2.028-3.657c-0.875-1.053-1.93-1.899-3.16-2.541c-1.234-0.633-2.608-0.957-4.124-0.957
		c-1.602,0-3.029,0.337-4.276,1.006c-1.245,0.666-2.302,1.537-3.16,2.604c-0.863,1.067-1.525,2.295-1.984,3.675
		C255.473,225.945,255.243,227.347,255.243,228.774z"/>
	<path style="fill:#1D0D5C;" d="M299.576,222.315v22.276h-4.99V212.96h3.92l18.09,22.809v-22.766h5.031v31.588h-4.143
		L299.576,222.315z"/>
</g>
<g>
	<g id="ARC_9_">
		<path style="fill:#1D0D5C;" d="M109.595,171.179c-6.576,0-13.189-2.196-18.643-6.704c-6.039-4.992-9.773-12.036-10.518-19.835
			c-0.74-7.795,1.598-15.411,6.59-21.449c1.059-1.284,2.959-1.463,4.242-0.403c1.284,1.061,1.464,2.958,0.402,4.242
			c-3.963,4.797-5.82,10.849-5.232,17.042c0.59,6.197,3.555,11.792,8.356,15.759c9.895,8.176,24.607,6.775,32.792-3.125
			c0.949-1.151,1.777-2.373,2.465-3.626c0.795-1.461,2.624-2.007,4.088-1.204c1.459,0.797,1.998,2.629,1.201,4.088
			c-0.866,1.59-1.91,3.131-3.104,4.576C126.44,167.551,118.048,171.179,109.595,171.179z"/>
	</g>
	<g id="ARC_8_">
		<path style="fill:#1D0D5C;" d="M101.058,113.944c-0.815,0-1.631-0.332-2.224-0.981c-13.887-15.179-13.821-38.889,0.153-53.981
			c14.93-16.119,40.195-17.088,56.313-2.163c1.22,1.13,1.294,3.037,0.163,4.26c-1.134,1.22-3.041,1.292-4.259,0.162
			c-13.683-12.669-35.128-11.847-47.795,1.837c-11.86,12.812-11.918,32.937-0.128,45.818c1.121,1.228,1.037,3.135-0.188,4.255
			C102.513,113.682,101.785,113.944,101.058,113.944z"/>
	</g>
	<g id="LINE_30_">
		<path style="fill:#1D0D5C;" d="M186.269,148.609c-0.77,0-1.542-0.294-2.132-0.883l-37.208-37.213c-1.178-1.177-1.178-3.082,0-4.26
			c1.178-1.177,3.082-1.177,4.26,0l37.213,37.208c1.178,1.177,1.178,3.087,0,4.264C187.813,148.315,187.04,148.609,186.269,148.609z
			"/>
	</g>
	<g id="LINE_29_">
		<path style="fill:#1D0D5C;" d="M187.322,180.922c-0.769,0-1.541-0.294-2.13-0.883l-24.125-24.125
			c-1.178-1.177-1.178-3.086,0-4.264s3.084-1.177,4.262,0l24.125,24.127c1.177,1.177,1.177,3.084,0,4.262
			C188.864,180.628,188.095,180.922,187.322,180.922z"/>
	</g>
	<g id="LINE_28_">
		<path style="fill:#1D0D5C;" d="M246.16,177.245c-0.769,0-1.542-0.294-2.13-0.883l-51.709-51.702c-1.177-1.177-1.177-3.084,0-4.262
			c1.178-1.178,3.084-1.178,4.262,0l51.711,51.705c1.177,1.177,1.177,3.082,0,4.259C247.705,176.951,246.932,177.245,246.16,177.245
			z"/>
	</g>
	<g id="LINE_27_">
		<path style="fill:#1D0D5C;" d="M155.013,179.866c-0.771,0-1.543-0.294-2.132-0.883l-37.208-37.213
			c-1.178-1.177-1.178-3.082,0-4.26c1.177-1.177,3.086-1.177,4.264,0l37.208,37.211c1.177,1.177,1.177,3.084,0,4.262
			C156.556,179.572,155.783,179.866,155.013,179.866z"/>
	</g>
	<g id="LINE_26_">
		<path style="fill:#1D0D5C;" d="M278.782,178.609c-0.772,0-1.544-0.294-2.133-0.883l-98.46-98.457
			c-1.177-1.178-1.177-3.084,0-4.262c1.177-1.177,3.087-1.177,4.265,0l98.458,98.457c1.177,1.177,1.177,3.084,0,4.262
			C280.323,178.315,279.552,178.609,278.782,178.609z"/>
	</g>
	<g id="LINE_25_">
		<path style="fill:#1D0D5C;" d="M148.317,141.909c-0.771,0-1.544-0.294-2.133-0.883l-14.88-14.88c-1.177-1.178-1.177-3.084,0-4.262
			c1.177-1.177,3.085-1.177,4.262,0l14.882,14.882c1.178,1.177,1.178,3.083,0,4.259C149.86,141.615,149.087,141.909,148.317,141.909
			z"/>
	</g>
	<g id="LINE_24_">
		<path style="fill:#1D0D5C;" d="M179.571,110.661c-0.773,0-1.541-0.295-2.131-0.883L162.56,94.892
			c-1.178-1.177-1.178-3.084,0-4.262c1.177-1.177,3.084-1.177,4.262,0l14.879,14.888c1.179,1.177,1.179,3.082,0,4.26
			C181.112,110.366,180.342,110.661,179.571,110.661z"/>
	</g>
	<g id="LINE_23_">
		<path style="fill:#1D0D5C;" d="M219.442,181.787c-0.77,0-1.542-0.294-2.132-0.883l-17.541-17.545
			c-1.177-1.178-1.177-3.086,0-4.264c1.178-1.178,3.086-1.178,4.265,0l17.541,17.547c1.177,1.177,1.177,3.084,0,4.262
			C220.986,181.493,220.214,181.787,219.442,181.787z"/>
	</g>
	<g id="LINE_22_">
		<path style="fill:#1D0D5C;" d="M89.346,128.125c-0.677,0-1.357-0.228-1.917-0.691c-1.284-1.061-1.466-2.96-0.404-4.244
			l11.709-14.181c1.062-1.28,2.96-1.461,4.242-0.404c1.283,1.063,1.465,2.959,0.404,4.243l-11.711,14.181
			C91.075,127.75,90.212,128.125,89.346,128.125z"/>
	</g>
	<g id="ARC_7_">
		<path style="fill:#1D0D5C;" d="M195.204,95.033c-1.067,0-2.098-0.564-2.646-1.562c-0.801-1.459-0.27-3.295,1.192-4.096
			c5.455-2.993,9.415-7.931,11.157-13.906c1.741-5.974,1.049-12.27-1.95-17.727c-2.992-5.454-7.931-9.415-13.902-11.156
			c-5.978-1.744-12.269-1.051-17.723,1.946c-1.277,0.701-2.499,1.528-3.633,2.461c-1.289,1.059-3.185,0.875-4.244-0.413
			c-1.057-1.288-0.871-3.187,0.413-4.243c1.427-1.171,2.96-2.209,4.562-3.09c6.865-3.77,14.791-4.638,22.309-2.449
			c7.522,2.191,13.735,7.179,17.504,14.042c3.772,6.87,4.645,14.794,2.453,22.316c-2.19,7.52-7.179,13.735-14.048,17.506
			C196.188,94.912,195.691,95.033,195.204,95.033z"/>
	</g>
	<g id="LINE_21_">
		<path style="fill:#1D0D5C;" d="M153.253,62.042c-0.867,0-1.726-0.374-2.322-1.091c-1.063-1.284-0.883-3.185,0.4-4.245
			l12.534-10.363c1.279-1.059,3.181-0.877,4.243,0.401c1.059,1.284,0.879,3.185-0.404,4.246l-12.53,10.363
			C154.61,61.816,153.932,62.042,153.253,62.042z"/>
	</g>
</g>
</svg>
