<?xml version="1.0" encoding="iso-8859-1"?>
<!-- Generator: Adobe Illustrator 15.1.0, SVG Export Plug-In . SVG Version: 6.00 Build 0)  -->
<!DOCTYPE svg PUBLIC "-//W3C//DTD SVG 1.1//EN" "http://www.w3.org/Graphics/SVG/1.1/DTD/svg11.dtd">
<svg version="1.1" id="Layer_1" xmlns="http://www.w3.org/2000/svg" xmlns:xlink="http://www.w3.org/1999/xlink" x="0px" y="0px"
	 width="350px" height="230px" viewBox="0 0 350 230" style="enable-background:new 0 0 350 230;" xml:space="preserve">
<g>
	<g>
		<g>
			<linearGradient id="SVGID_1_" gradientUnits="userSpaceOnUse" x1="101.9565" y1="69.1035" x2="101.9565" y2="208.6666">
				<stop  offset="0" style="stop-color:#916CBF"/>
				<stop  offset="1" style="stop-color:#649CD9"/>
			</linearGradient>
			<path style="fill:url(#SVGID_1_);" d="M103.548,177.076c-6.577,0-13.19-2.195-18.643-6.704
				c-6.04-4.991-9.774-12.036-10.518-19.835c-0.74-7.796,1.598-15.412,6.59-21.449c1.059-1.284,2.959-1.464,4.243-0.403
				c1.284,1.062,1.463,2.958,0.402,4.241c-3.963,4.797-5.821,10.85-5.232,17.043c0.589,6.197,3.554,11.791,8.356,15.76
				c9.895,8.176,24.607,6.775,32.792-3.126c0.95-1.151,1.778-2.373,2.465-3.626c0.795-1.461,2.624-2.007,4.087-1.204
				c1.459,0.797,1.999,2.629,1.202,4.089c-0.867,1.59-1.911,3.131-3.104,4.576C120.393,173.447,112,177.076,103.548,177.076z"/>
		</g>
		<g>
			<linearGradient id="SVGID_2_" gradientUnits="userSpaceOnUse" x1="116.3174" y1="69.1025" x2="116.3174" y2="208.6689">
				<stop  offset="0" style="stop-color:#916CBF"/>
				<stop  offset="1" style="stop-color:#649CD9"/>
			</linearGradient>
			<path style="fill:url(#SVGID_2_);" d="M95.011,119.841c-0.815,0-1.631-0.331-2.224-0.981
				C78.9,103.681,78.965,79.971,92.94,64.878c14.929-16.118,40.195-17.088,56.313-2.163c1.22,1.131,1.294,3.037,0.164,4.26
				c-1.134,1.221-3.042,1.292-4.259,0.162c-13.683-12.669-35.128-11.848-47.795,1.838c-11.861,12.811-11.918,32.936-0.128,45.817
				c1.122,1.228,1.038,3.136-0.188,4.255C96.466,119.579,95.738,119.841,95.011,119.841z"/>
		</g>
		<g>
			<linearGradient id="SVGID_3_" gradientUnits="userSpaceOnUse" x1="161.6187" y1="69.1035" x2="161.6187" y2="208.668">
				<stop  offset="0" style="stop-color:#916CBF"/>
				<stop  offset="1" style="stop-color:#649CD9"/>
			</linearGradient>
			<path style="fill:url(#SVGID_3_);" d="M180.222,154.506c-0.77,0-1.542-0.293-2.132-0.883l-37.208-37.213
				c-1.177-1.177-1.177-3.082,0-4.26c1.177-1.177,3.083-1.177,4.26,0l37.213,37.209c1.178,1.178,1.178,3.087,0,4.264
				C181.767,154.213,180.993,154.506,180.222,154.506z"/>
		</g>
		<g>
			<linearGradient id="SVGID_4_" gradientUnits="userSpaceOnUse" x1="169.2134" y1="69.0986" x2="169.2134" y2="208.6696">
				<stop  offset="0" style="stop-color:#916CBF"/>
				<stop  offset="1" style="stop-color:#649CD9"/>
			</linearGradient>
			<path style="fill:url(#SVGID_4_);" d="M181.275,186.819c-0.769,0-1.541-0.294-2.13-0.883l-24.125-24.125
				c-1.178-1.177-1.178-3.087,0-4.264c1.177-1.177,3.084-1.177,4.261,0l24.125,24.127c1.177,1.177,1.177,3.085,0,4.262
				C182.817,186.525,182.048,186.819,181.275,186.819z"/>
		</g>
		<g>
			<linearGradient id="SVGID_5_" gradientUnits="userSpaceOnUse" x1="214.2607" y1="69.1035" x2="214.2607" y2="208.6681">
				<stop  offset="0" style="stop-color:#916CBF"/>
				<stop  offset="1" style="stop-color:#649CD9"/>
			</linearGradient>
			<path style="fill:url(#SVGID_5_);" d="M240.113,183.143c-0.769,0-1.542-0.295-2.13-0.883l-51.709-51.703
				c-1.177-1.177-1.177-3.084,0-4.262c1.178-1.178,3.084-1.178,4.262,0L242.247,178c1.177,1.178,1.177,3.082,0,4.26
				C241.658,182.848,240.885,183.143,240.113,183.143z"/>
		</g>
		<g>
			<linearGradient id="SVGID_6_" gradientUnits="userSpaceOnUse" x1="130.3618" y1="69.1016" x2="130.3618" y2="208.6692">
				<stop  offset="0" style="stop-color:#916CBF"/>
				<stop  offset="1" style="stop-color:#649CD9"/>
			</linearGradient>
			<path style="fill:url(#SVGID_6_);" d="M148.966,185.764c-0.771,0-1.543-0.295-2.132-0.884l-37.208-37.213
				c-1.177-1.177-1.177-3.082,0-4.26c1.177-1.177,3.086-1.177,4.264,0l37.208,37.211c1.177,1.177,1.177,3.085,0,4.262
				C150.509,185.469,149.736,185.764,148.966,185.764z"/>
		</g>
		<g>
			<linearGradient id="SVGID_7_" gradientUnits="userSpaceOnUse" x1="223.5039" y1="69.1025" x2="223.5039" y2="208.6686">
				<stop  offset="0" style="stop-color:#916CBF"/>
				<stop  offset="1" style="stop-color:#649CD9"/>
			</linearGradient>
			<path style="fill:url(#SVGID_7_);" d="M272.735,184.506c-0.772,0-1.544-0.294-2.133-0.883l-98.46-98.457
				c-1.177-1.178-1.177-3.084,0-4.262c1.177-1.177,3.086-1.177,4.265,0l98.458,98.457c1.177,1.178,1.177,3.084,0,4.262
				C274.276,184.212,273.505,184.506,272.735,184.506z"/>
		</g>
		<g>
			<linearGradient id="SVGID_8_" gradientUnits="userSpaceOnUse" x1="134.8296" y1="69.1035" x2="134.8296" y2="208.6668">
				<stop  offset="0" style="stop-color:#916CBF"/>
				<stop  offset="1" style="stop-color:#649CD9"/>
			</linearGradient>
			<path style="fill:url(#SVGID_8_);" d="M142.27,147.807c-0.771,0-1.543-0.295-2.132-0.884l-14.88-14.88
				c-1.177-1.178-1.177-3.084,0-4.262s3.084-1.178,4.262,0l14.882,14.883c1.178,1.177,1.178,3.082,0,4.259
				C143.813,147.512,143.04,147.807,142.27,147.807z"/>
		</g>
		<g>
			<linearGradient id="SVGID_9_" gradientUnits="userSpaceOnUse" x1="166.083" y1="69.1035" x2="166.083" y2="208.6666">
				<stop  offset="0" style="stop-color:#916CBF"/>
				<stop  offset="1" style="stop-color:#649CD9"/>
			</linearGradient>
			<path style="fill:url(#SVGID_9_);" d="M173.524,116.559c-0.772,0-1.541-0.295-2.13-0.884l-14.882-14.886
				c-1.177-1.178-1.177-3.085,0-4.262c1.177-1.178,3.084-1.178,4.262,0l14.88,14.888c1.178,1.177,1.178,3.082,0,4.26
				C175.065,116.264,174.295,116.559,173.524,116.559z"/>
		</g>
		<g>
			<linearGradient id="SVGID_10_" gradientUnits="userSpaceOnUse" x1="204.625" y1="69.1064" x2="204.625" y2="208.667">
				<stop  offset="0" style="stop-color:#916CBF"/>
				<stop  offset="1" style="stop-color:#649CD9"/>
			</linearGradient>
			<path style="fill:url(#SVGID_10_);" d="M213.396,187.684c-0.77,0-1.542-0.293-2.132-0.883l-17.541-17.545
				c-1.177-1.178-1.177-3.086,0-4.264c1.178-1.178,3.086-1.178,4.265,0l17.541,17.547c1.177,1.178,1.177,3.085,0,4.262
				C214.939,187.391,214.167,187.684,213.396,187.684z"/>
		</g>
		<g>
			<linearGradient id="SVGID_11_" gradientUnits="userSpaceOnUse" x1="89.1548" y1="69.0967" x2="89.1548" y2="208.6755">
				<stop  offset="0" style="stop-color:#916CBF"/>
				<stop  offset="1" style="stop-color:#649CD9"/>
			</linearGradient>
			<path style="fill:url(#SVGID_11_);" d="M83.299,134.021c-0.677,0-1.357-0.227-1.917-0.69c-1.284-1.062-1.466-2.96-0.405-4.243
				l11.71-14.182c1.061-1.279,2.959-1.461,4.241-0.404c1.284,1.063,1.465,2.959,0.404,4.243l-11.71,14.181
				C85.028,133.647,84.166,134.021,83.299,134.021z"/>
		</g>
		<g>
			<linearGradient id="SVGID_12_" gradientUnits="userSpaceOnUse" x1="181.2793" y1="69.1016" x2="181.2793" y2="208.6678">
				<stop  offset="0" style="stop-color:#916CBF"/>
				<stop  offset="1" style="stop-color:#649CD9"/>
			</linearGradient>
			<path style="fill:url(#SVGID_12_);" d="M189.157,100.93c-1.067,0-2.098-0.564-2.646-1.562c-0.801-1.46-0.27-3.296,1.192-4.097
				c5.455-2.992,9.415-7.93,11.157-13.905c1.741-5.974,1.049-12.27-1.95-17.728c-2.992-5.453-7.931-9.414-13.902-11.155
				c-5.978-1.744-12.269-1.051-17.722,1.946c-1.277,0.701-2.5,1.527-3.634,2.461c-1.288,1.059-3.184,0.874-4.244-0.414
				c-1.056-1.287-0.871-3.186,0.413-4.242c1.427-1.172,2.96-2.21,4.562-3.091c6.864-3.77,14.791-4.638,22.308-2.449
				c7.522,2.191,13.735,7.179,17.504,14.042c3.772,6.87,4.645,14.795,2.453,22.316c-2.19,7.52-7.179,13.736-14.048,17.507
				C190.142,100.809,189.645,100.93,189.157,100.93z"/>
		</g>
		<g>
			<linearGradient id="SVGID_13_" gradientUnits="userSpaceOnUse" x1="153.4712" y1="69.1025" x2="153.4712" y2="208.6757">
				<stop  offset="0" style="stop-color:#916CBF"/>
				<stop  offset="1" style="stop-color:#649CD9"/>
			</linearGradient>
			<path style="fill:url(#SVGID_13_);" d="M147.206,67.939c-0.867,0-1.726-0.374-2.322-1.092c-1.063-1.283-0.883-3.184,0.401-4.244
				l12.534-10.363c1.279-1.059,3.18-0.877,4.243,0.4c1.059,1.283,0.879,3.185-0.404,4.246l-12.53,10.362
				C148.563,67.713,147.885,67.939,147.206,67.939z"/>
		</g>
	</g>
</g>
</svg>
