<?xml version="1.0" encoding="iso-8859-1"?>
<!-- Generator: Adobe Illustrator 15.1.0, SVG Export Plug-In . SVG Version: 6.00 Build 0)  -->
<!DOCTYPE svg PUBLIC "-//W3C//DTD SVG 1.1//EN" "http://www.w3.org/Graphics/SVG/1.1/DTD/svg11.dtd">
<svg version="1.1" id="Layer_1" xmlns="http://www.w3.org/2000/svg" xmlns:xlink="http://www.w3.org/1999/xlink" x="0px" y="0px"
	 width="352.482px" height="270px" viewBox="0 0 352.482 270" style="enable-background:new 0 0 352.482 270;" xml:space="preserve"
	>
<g>
	<g>
		<path style="fill:#FFFFFF;" d="M62.257,244.591v-22.766l-9.4,17.241h-2.764l-9.445-17.241v22.766H35.66V212.96h5.344
			l10.473,19.334l10.469-19.334h5.344v31.631H62.257z"/>
		<path style="fill:#FFFFFF;" d="M96.469,244.815c-2.257,0-4.313-0.454-6.168-1.361c-1.857-0.908-3.453-2.107-4.788-3.609
			c-1.337-1.5-2.37-3.213-3.099-5.143c-0.728-1.932-1.092-3.906-1.092-5.927c0-2.109,0.387-4.127,1.158-6.059
			c0.773-1.929,1.835-3.638,3.188-5.124c1.35-1.482,2.956-2.667,4.809-3.54c1.857-0.877,3.887-1.314,6.084-1.314
			c2.255,0,4.311,0.466,6.169,1.402c1.858,0.936,3.448,2.16,4.769,3.675s2.347,3.229,3.072,5.146
			c0.728,1.916,1.094,3.87,1.094,5.858c0,2.109-0.381,4.129-1.137,6.058c-0.756,1.93-1.819,3.632-3.185,5.102
			c-1.369,1.471-2.979,2.645-4.836,3.52C100.65,244.376,98.64,244.815,96.469,244.815z M86.4,228.774
			c0,1.486,0.239,2.925,0.715,4.323c0.475,1.396,1.15,2.629,2.025,3.698c0.877,1.067,1.939,1.923,3.188,2.559
			c1.246,0.642,2.645,0.961,4.186,0.961c1.603,0,3.021-0.335,4.256-1.005c1.234-0.667,2.277-1.55,3.139-2.649
			c0.863-1.099,1.518-2.33,1.963-3.7c0.445-1.365,0.666-2.759,0.666-4.186c0-1.513-0.236-2.962-0.711-4.341
			c-0.475-1.384-1.15-2.601-2.027-3.657c-0.875-1.053-1.932-1.899-3.16-2.541c-1.234-0.633-2.608-0.957-4.125-0.957
			c-1.602,0-3.029,0.337-4.275,1.006c-1.247,0.666-2.302,1.537-3.162,2.604c-0.861,1.067-1.523,2.295-1.984,3.675
			C86.629,225.945,86.4,227.347,86.4,228.774z"/>
		<path style="fill:#FFFFFF;" d="M130.732,222.315v22.276h-4.99V212.96h3.921l18.089,22.809v-22.766h5.033v31.588h-4.144
			L130.732,222.315z"/>
		<path style="fill:#FFFFFF;" d="M187.532,220.4c-0.297-0.327-0.728-0.676-1.292-1.048c-0.563-0.37-1.225-0.719-1.98-1.046
			s-1.588-0.595-2.496-0.801c-0.907-0.208-1.833-0.311-2.784-0.311c-2.106,0-3.662,0.384-4.655,1.157
			c-0.996,0.772-1.492,1.839-1.492,3.207c0,0.775,0.155,1.404,0.468,1.896c0.313,0.488,0.795,0.919,1.447,1.289
			c0.654,0.374,1.472,0.701,2.451,0.983c0.98,0.282,2.123,0.584,3.43,0.912c1.604,0.386,3.054,0.815,4.345,1.292
			c1.293,0.474,2.384,1.054,3.274,1.737c0.889,0.683,1.583,1.521,2.072,2.516c0.489,0.998,0.732,2.208,0.732,3.632
			c0,1.605-0.302,2.984-0.911,4.146c-0.61,1.157-1.443,2.101-2.496,2.827c-1.053,0.728-2.279,1.263-3.673,1.604
			c-1.398,0.342-2.896,0.511-4.501,0.511c-2.408,0-4.73-0.364-6.972-1.092c-2.243-0.728-4.271-1.788-6.081-3.185l2.273-4.276
			c0.384,0.384,0.939,0.816,1.668,1.292c0.727,0.474,1.573,0.912,2.54,1.312c0.966,0.4,2.013,0.744,3.142,1.026
			s2.302,0.423,3.519,0.423c1.959,0,3.477-0.341,4.545-1.024s1.604-1.693,1.604-3.029c0-0.803-0.199-1.472-0.6-2.003
			c-0.405-0.536-0.976-1.006-1.717-1.407c-0.745-0.4-1.648-0.764-2.72-1.091c-1.068-0.327-2.286-0.667-3.652-1.024
			c-1.575-0.417-2.945-0.853-4.12-1.314c-1.175-0.46-2.146-1.016-2.917-1.67c-0.772-0.652-1.361-1.418-1.76-2.295
			c-0.402-0.877-0.604-1.938-0.604-3.185c0-1.545,0.297-2.919,0.893-4.125c0.594-1.2,1.403-2.209,2.428-3.027
			c1.023-0.816,2.234-1.433,3.632-1.85c1.396-0.413,2.909-0.621,4.544-0.621c2.138,0,4.111,0.339,5.924,1.022
			c1.811,0.683,3.4,1.531,4.767,2.541L187.532,220.4z"/>
		<path style="fill:#FFFFFF;" d="M218.096,244.815c-2.259,0-4.315-0.454-6.171-1.361s-3.45-2.107-4.787-3.609
			c-1.336-1.5-2.371-3.213-3.097-5.143c-0.729-1.932-1.091-3.906-1.091-5.927c0-2.109,0.386-4.127,1.154-6.059
			c0.776-1.929,1.836-3.638,3.188-5.124c1.352-1.482,2.956-2.667,4.81-3.54c1.857-0.877,3.886-1.314,6.085-1.314
			c2.253,0,4.312,0.466,6.169,1.402c1.856,0.936,3.446,2.16,4.766,3.675c1.323,1.515,2.348,3.229,3.074,5.146
			c0.729,1.916,1.093,3.87,1.093,5.858c0,2.109-0.38,4.129-1.137,6.058c-0.757,1.93-1.819,3.632-3.186,5.102
			c-1.369,1.471-2.978,2.645-4.835,3.52C222.277,244.376,220.264,244.815,218.096,244.815z M208.025,228.774
			c0,1.486,0.241,2.925,0.715,4.323c0.475,1.396,1.153,2.629,2.028,3.698c0.874,1.067,1.937,1.923,3.187,2.559
			c1.244,0.642,2.642,0.961,4.184,0.961c1.604,0,3.025-0.335,4.255-1.005c1.235-0.667,2.28-1.55,3.143-2.649
			c0.862-1.099,1.515-2.33,1.96-3.7c0.448-1.365,0.669-2.759,0.669-4.186c0-1.513-0.239-2.962-0.714-4.341
			c-0.475-1.384-1.149-2.601-2.028-3.657c-0.874-1.053-1.93-1.899-3.159-2.541c-1.234-0.633-2.608-0.957-4.125-0.957
			c-1.601,0-3.028,0.337-4.275,1.006c-1.245,0.666-2.303,1.537-3.161,2.604c-0.862,1.067-1.524,2.295-1.984,3.675
			C208.256,225.945,208.025,227.347,208.025,228.774z"/>
		<path style="fill:#FFFFFF;" d="M260.507,244.815c-2.257,0-4.313-0.454-6.169-1.361s-3.45-2.107-4.787-3.609
			c-1.337-1.5-2.371-3.213-3.099-5.143c-0.728-1.932-1.092-3.906-1.092-5.927c0-2.109,0.387-4.127,1.156-6.059
			c0.775-1.929,1.837-3.638,3.189-5.124c1.351-1.482,2.955-2.667,4.81-3.54c1.857-0.877,3.885-1.314,6.083-1.314
			c2.255,0,4.311,0.466,6.171,1.402c1.855,0.936,3.446,2.16,4.767,3.675c1.319,1.515,2.347,3.229,3.074,5.146
			c0.726,1.916,1.091,3.87,1.091,5.858c0,2.109-0.38,4.129-1.137,6.058c-0.756,1.93-1.819,3.632-3.184,5.102
			c-1.371,1.471-2.981,2.645-4.837,3.52C264.688,244.376,262.677,244.815,260.507,244.815z M250.438,228.774
			c0,1.486,0.239,2.925,0.715,4.323c0.475,1.396,1.153,2.629,2.026,3.698c0.877,1.067,1.939,1.923,3.187,2.559
			c1.246,0.642,2.646,0.961,4.187,0.961c1.604,0,3.022-0.335,4.255-1.005c1.235-0.667,2.279-1.55,3.14-2.649
			c0.862-1.099,1.517-2.33,1.962-3.7c0.446-1.365,0.666-2.759,0.666-4.186c0-1.513-0.236-2.962-0.71-4.341
			c-0.476-1.384-1.152-2.601-2.028-3.657c-0.875-1.053-1.93-1.899-3.16-2.541c-1.234-0.633-2.608-0.957-4.124-0.957
			c-1.602,0-3.029,0.337-4.276,1.006c-1.245,0.666-2.302,1.537-3.16,2.604c-0.863,1.067-1.525,2.295-1.984,3.675
			C250.667,225.945,250.438,227.347,250.438,228.774z"/>
		<path style="fill:#FFFFFF;" d="M294.771,222.315v22.276h-4.99V212.96h3.92l18.09,22.809v-22.766h5.031v31.588h-4.143
			L294.771,222.315z"/>
	</g>
</g>
<g>
	<g>
		<g>
			<linearGradient id="SVGID_1_" gradientUnits="userSpaceOnUse" x1="103.1982" y1="63.2065" x2="103.1982" y2="202.7697">
				<stop  offset="0" style="stop-color:#916CBF"/>
				<stop  offset="1" style="stop-color:#649CD9"/>
			</linearGradient>
			<path style="fill:url(#SVGID_1_);" d="M104.789,171.179c-6.576,0-13.189-2.196-18.643-6.704
				c-6.039-4.992-9.773-12.036-10.518-19.835c-0.74-7.795,1.598-15.411,6.59-21.449c1.059-1.284,2.959-1.463,4.242-0.403
				c1.284,1.061,1.464,2.958,0.402,4.242c-3.963,4.797-5.82,10.849-5.232,17.042c0.59,6.197,3.555,11.792,8.356,15.759
				c9.895,8.176,24.607,6.775,32.792-3.125c0.949-1.151,1.777-2.373,2.465-3.626c0.795-1.461,2.624-2.007,4.088-1.204
				c1.459,0.797,1.998,2.629,1.201,4.088c-0.866,1.59-1.91,3.131-3.104,4.576C121.635,167.551,113.242,171.179,104.789,171.179z"/>
		</g>
		<g>
			<linearGradient id="SVGID_2_" gradientUnits="userSpaceOnUse" x1="117.5586" y1="63.2051" x2="117.5586" y2="202.7725">
				<stop  offset="0" style="stop-color:#916CBF"/>
				<stop  offset="1" style="stop-color:#649CD9"/>
			</linearGradient>
			<path style="fill:url(#SVGID_2_);" d="M96.252,113.944c-0.815,0-1.631-0.332-2.224-0.981
				c-13.887-15.179-13.821-38.889,0.153-53.981c14.93-16.119,40.195-17.088,56.313-2.163c1.22,1.13,1.294,3.037,0.163,4.26
				c-1.134,1.22-3.041,1.292-4.259,0.162c-13.683-12.669-35.128-11.847-47.795,1.837c-11.86,12.812-11.918,32.937-0.128,45.818
				c1.121,1.228,1.037,3.135-0.188,4.255C97.707,113.682,96.979,113.944,96.252,113.944z"/>
		</g>
		<g>
			<linearGradient id="SVGID_3_" gradientUnits="userSpaceOnUse" x1="162.8594" y1="63.207" x2="162.8594" y2="202.7715">
				<stop  offset="0" style="stop-color:#916CBF"/>
				<stop  offset="1" style="stop-color:#649CD9"/>
			</linearGradient>
			<path style="fill:url(#SVGID_3_);" d="M181.463,148.609c-0.77,0-1.542-0.294-2.132-0.883l-37.208-37.213
				c-1.178-1.177-1.178-3.082,0-4.26c1.178-1.177,3.082-1.177,4.26,0l37.213,37.208c1.178,1.177,1.178,3.087,0,4.264
				C183.008,148.315,182.234,148.609,181.463,148.609z"/>
		</g>
		<g>
			<linearGradient id="SVGID_4_" gradientUnits="userSpaceOnUse" x1="170.4551" y1="63.2017" x2="170.4551" y2="202.7726">
				<stop  offset="0" style="stop-color:#916CBF"/>
				<stop  offset="1" style="stop-color:#649CD9"/>
			</linearGradient>
			<path style="fill:url(#SVGID_4_);" d="M182.517,180.922c-0.769,0-1.541-0.294-2.13-0.883l-24.125-24.125
				c-1.178-1.177-1.178-3.086,0-4.264s3.084-1.177,4.262,0l24.125,24.127c1.177,1.177,1.177,3.084,0,4.262
				C184.059,180.628,183.289,180.922,182.517,180.922z"/>
		</g>
		<g>
			<linearGradient id="SVGID_5_" gradientUnits="userSpaceOnUse" x1="215.502" y1="63.2065" x2="215.502" y2="202.7699">
				<stop  offset="0" style="stop-color:#916CBF"/>
				<stop  offset="1" style="stop-color:#649CD9"/>
			</linearGradient>
			<path style="fill:url(#SVGID_5_);" d="M241.354,177.245c-0.769,0-1.542-0.294-2.13-0.883l-51.709-51.702
				c-1.177-1.177-1.177-3.084,0-4.262c1.178-1.178,3.084-1.178,4.262,0l51.711,51.705c1.177,1.177,1.177,3.082,0,4.259
				C242.899,176.951,242.126,177.245,241.354,177.245z"/>
		</g>
		<g>
			<linearGradient id="SVGID_6_" gradientUnits="userSpaceOnUse" x1="131.6035" y1="63.2061" x2="131.6035" y2="202.7722">
				<stop  offset="0" style="stop-color:#916CBF"/>
				<stop  offset="1" style="stop-color:#649CD9"/>
			</linearGradient>
			<path style="fill:url(#SVGID_6_);" d="M150.207,179.866c-0.771,0-1.543-0.294-2.132-0.883l-37.208-37.213
				c-1.178-1.177-1.178-3.082,0-4.26c1.177-1.177,3.086-1.177,4.264,0l37.208,37.211c1.177,1.177,1.177,3.084,0,4.262
				C151.75,179.572,150.978,179.866,150.207,179.866z"/>
		</g>
		<g>
			<linearGradient id="SVGID_7_" gradientUnits="userSpaceOnUse" x1="224.7451" y1="63.2051" x2="224.7451" y2="202.7711">
				<stop  offset="0" style="stop-color:#916CBF"/>
				<stop  offset="1" style="stop-color:#649CD9"/>
			</linearGradient>
			<path style="fill:url(#SVGID_7_);" d="M273.977,178.609c-0.772,0-1.544-0.294-2.133-0.883l-98.46-98.457
				c-1.177-1.178-1.177-3.084,0-4.262c1.177-1.177,3.087-1.177,4.265,0l98.458,98.457c1.177,1.177,1.177,3.084,0,4.262
				C275.518,178.315,274.746,178.609,273.977,178.609z"/>
		</g>
		<g>
			<linearGradient id="SVGID_8_" gradientUnits="userSpaceOnUse" x1="136.0703" y1="63.208" x2="136.0703" y2="202.7681">
				<stop  offset="0" style="stop-color:#916CBF"/>
				<stop  offset="1" style="stop-color:#649CD9"/>
			</linearGradient>
			<path style="fill:url(#SVGID_8_);" d="M143.512,141.909c-0.771,0-1.544-0.294-2.133-0.883l-14.88-14.88
				c-1.177-1.178-1.177-3.084,0-4.262c1.177-1.177,3.085-1.177,4.262,0l14.882,14.882c1.178,1.177,1.178,3.083,0,4.259
				C145.055,141.615,144.281,141.909,143.512,141.909z"/>
		</g>
		<g>
			<linearGradient id="SVGID_9_" gradientUnits="userSpaceOnUse" x1="167.3242" y1="63.2056" x2="167.3242" y2="202.7686">
				<stop  offset="0" style="stop-color:#916CBF"/>
				<stop  offset="1" style="stop-color:#649CD9"/>
			</linearGradient>
			<path style="fill:url(#SVGID_9_);" d="M174.766,110.661c-0.773,0-1.541-0.295-2.131-0.883l-14.881-14.886
				c-1.178-1.177-1.178-3.084,0-4.262c1.177-1.177,3.084-1.177,4.262,0l14.879,14.888c1.179,1.177,1.179,3.082,0,4.26
				C176.307,110.366,175.536,110.661,174.766,110.661z"/>
		</g>
		<g>
			<linearGradient id="SVGID_10_" gradientUnits="userSpaceOnUse" x1="205.8672" y1="63.2046" x2="205.8672" y2="202.7709">
				<stop  offset="0" style="stop-color:#916CBF"/>
				<stop  offset="1" style="stop-color:#649CD9"/>
			</linearGradient>
			<path style="fill:url(#SVGID_10_);" d="M214.637,181.787c-0.77,0-1.542-0.294-2.132-0.883l-17.541-17.545
				c-1.177-1.178-1.177-3.086,0-4.264c1.178-1.178,3.086-1.178,4.265,0l17.541,17.547c1.177,1.177,1.177,3.084,0,4.262
				C216.181,181.493,215.408,181.787,214.637,181.787z"/>
		</g>
		<g>
			<linearGradient id="SVGID_11_" gradientUnits="userSpaceOnUse" x1="90.3965" y1="63.1973" x2="90.3965" y2="202.7829">
				<stop  offset="0" style="stop-color:#916CBF"/>
				<stop  offset="1" style="stop-color:#649CD9"/>
			</linearGradient>
			<path style="fill:url(#SVGID_11_);" d="M84.54,128.125c-0.677,0-1.357-0.228-1.917-0.691c-1.284-1.061-1.466-2.96-0.404-4.244
				l11.709-14.181c1.062-1.28,2.96-1.461,4.242-0.404c1.283,1.063,1.465,2.959,0.404,4.243l-11.711,14.181
				C86.27,127.75,85.406,128.125,84.54,128.125z"/>
		</g>
		<g>
			<linearGradient id="SVGID_12_" gradientUnits="userSpaceOnUse" x1="182.5195" y1="63.2046" x2="182.5195" y2="202.7709">
				<stop  offset="0" style="stop-color:#916CBF"/>
				<stop  offset="1" style="stop-color:#649CD9"/>
			</linearGradient>
			<path style="fill:url(#SVGID_12_);" d="M190.398,95.033c-1.067,0-2.098-0.564-2.646-1.562c-0.801-1.459-0.27-3.295,1.192-4.096
				c5.455-2.993,9.415-7.931,11.157-13.906c1.741-5.974,1.049-12.27-1.95-17.727c-2.992-5.454-7.931-9.415-13.902-11.156
				c-5.978-1.744-12.269-1.051-17.723,1.946c-1.277,0.701-2.499,1.528-3.633,2.461c-1.289,1.059-3.185,0.875-4.244-0.413
				c-1.057-1.288-0.871-3.187,0.413-4.243c1.427-1.171,2.96-2.209,4.562-3.09c6.865-3.77,14.791-4.638,22.309-2.449
				c7.522,2.191,13.735,7.179,17.504,14.042c3.772,6.87,4.645,14.794,2.453,22.316c-2.19,7.52-7.179,13.735-14.048,17.506
				C191.383,94.912,190.886,95.033,190.398,95.033z"/>
		</g>
		<g>
			<linearGradient id="SVGID_13_" gradientUnits="userSpaceOnUse" x1="154.7129" y1="63.2051" x2="154.7129" y2="202.7824">
				<stop  offset="0" style="stop-color:#916CBF"/>
				<stop  offset="1" style="stop-color:#649CD9"/>
			</linearGradient>
			<path style="fill:url(#SVGID_13_);" d="M148.447,62.042c-0.867,0-1.726-0.374-2.322-1.091c-1.063-1.284-0.883-3.185,0.4-4.245
				l12.534-10.363c1.279-1.059,3.181-0.877,4.243,0.401c1.059,1.284,0.879,3.185-0.404,4.246l-12.53,10.363
				C149.805,61.816,149.126,62.042,148.447,62.042z"/>
		</g>
	</g>
</g>
</svg>
